<?xml version="1.0" encoding="utf-8"?>
<!-- Generator: Adobe Illustrator 19.2.0, SVG Export Plug-In . SVG Version: 6.00 Build 0)  -->
<svg version="1.1" id="Laag_1" xmlns="http://www.w3.org/2000/svg" xmlns:xlink="http://www.w3.org/1999/xlink" x="0px" y="0px"
	 viewBox="0 0 1683.9 423.8" style="enable-background:new 0 0 1683.9 423.8;" xml:space="preserve">
<style type="text/css">
	.st0{fill:#E6A501;}
	.st1{fill:#1E3F87;}
	.st2{fill:#F6C712;}
	.st3{fill:#FFFFFF;}
	.st4{font-family:'OpenSans-Semibold';}
	.st5{font-size:140px;}
</style>
<title>licence_plate</title>
<path class="st0" d="M12.2,0H1672c6.6,0,12,5.4,12,12v398.5c0,6.6-5.4,12-12,12H12.2c-6.6,0-12-5.4-12-12V12C0.2,5.4,5.5,0,12.2,0z"
	/>
<path class="st1" d="M12,0.6h249.5l0,0v422.5l0,0H12c-6.6,0-12-5.4-12-12V12.6C0,6,5.3,0.6,12,0.6z"/>
<path class="st2" d="M81.6,75.9c0.9-2.9,1.6-5.3,2.5-7.7c0.5-1.1,0.1-2.3-0.9-2.9c0,0-0.1,0-0.1,0c-2.1-1.4-4-2.9-6.6-4.8
	c2.2-0.1,4.3-0.1,6.5,0.1c3,0.4,4.2-0.9,4.8-3.6c0.4-1.8,1.1-3.6,1.9-6c1,2.9,1.8,5.2,2.5,7.7c0.1,1.1,1.2,2,2.3,1.8
	c0,0,0.1,0,0.1,0c2.5-0.1,4.9,0,8.1,0c-2.4,1.8-4.3,3.3-6.3,4.5c-1.6,1-1.8,2-1.1,3.6c0.8,2.1,1.4,4.4,2.4,7.2
	C95.1,74,93,72.6,91,71c-0.7-0.8-1.9-0.8-2.6-0.1c-0.1,0-0.1,0.1-0.1,0.1C86.2,72.6,84.1,74.1,81.6,75.9z"/>
<path class="st2" d="M163.8,75.9c0.9-2.7,1.4-5,2.3-7.1c0.9-1.9,0.3-3-1.4-4c-1.9-1.2-3.6-2.6-6-4.3c3.1,0,5.6-0.1,8,0
	c1.2,0.3,2.4-0.5,2.6-1.7c0-0.1,0-0.1,0-0.2c0.6-2.4,1.5-4.7,2.5-7.6c1,3,1.8,5.3,2.5,7.7c0.1,1.1,1.2,1.9,2.3,1.8
	c0.1,0,0.1,0,0.1,0c2.5-0.1,4.9,0,8.1,0c-2.4,1.8-4.2,3.2-6.2,4.5c-1.4,0.9-1.9,1.8-1.2,3.5c0.9,2.2,1.5,4.5,2.4,7.4
	c-2.4-1.7-4.3-3-6.1-4.5c-1.3-1-2.3-1.4-3.8-0.1C168.2,72.9,166.2,74.2,163.8,75.9z"/>
<path class="st2" d="M117.6,49.5c3.3,0,5.9-0.1,8.4,0c1,0.2,2-0.5,2.2-1.5c0.8-2.5,1.6-4.9,2.5-8c1,2.9,1.8,5.2,2.5,7.6
	c0.2,1.2,1.3,2.1,2.5,1.9c0.1,0,0.1,0,0.2,0c2.4-0.1,4.9,0,8,0c-2.6,1.9-4.6,3.5-6.8,4.9c-1,0.5-1.3,1.7-0.9,2.7
	c0.8,2.3,1.8,4.6,2.1,7.6c-2.1-1.6-4-2.8-5.7-4.2c-1.3-1.1-2.4-1.3-3.8,0c-1.8,1.5-3.8,2.8-6,3.7c0.8-2.3,1.5-4.7,2.3-6.9
	c0.5-1,0.2-2.2-0.8-2.7c-0.1,0-0.2-0.1-0.2-0.1C122.2,52.9,120.3,51.4,117.6,49.5z"/>
<path class="st2" d="M163.8,218.2c0.9-2.9,1.6-5.1,2.4-7.2c0.6-1.6,0.5-2.7-1.1-3.6c-2-1.2-3.9-2.8-6.3-4.6c3.1,0,5.6-0.1,8.1,0
	c1.5,0.1,2.2-0.3,2.6-1.9c0.6-2.4,1.5-4.7,2.5-7.6c0.9,2.9,1.8,5.2,2.4,7.6c0.4,1.4,1,2,2.6,1.9c2.4-0.1,4.9,0,8.1,0
	c-2.5,1.8-4.3,3.3-6.3,4.6c-1.4,0.9-1.9,1.8-1.2,3.4c0.9,2.2,1.5,4.5,2.4,7.4c-2.6-1.9-4.7-3.4-6.8-4.9c-0.7-0.7-1.8-0.7-2.6-0.1
	c0,0,0,0-0.1,0.1C168.6,214.9,166.4,216.3,163.8,218.2z"/>
<path class="st2" d="M89.6,193.4c0.9,2.8,1.9,5.1,2.4,7.5c0.4,1.7,1.2,2.1,2.8,2c2.4-0.1,4.8,0,7.9,0c-2.2,1.6-3.7,2.9-5.4,3.9
	c-2.2,1.3-3,2.7-1.8,5.1c0.8,2.1,1.5,4.2,2.1,6.3c-2.5-1.8-4.7-3.3-6.7-4.8c-0.7-0.8-2-0.8-2.7-0.1c0,0-0.1,0.1-0.1,0.1
	c-2,1.6-4.1,3-6.6,4.9c0.9-2.7,1.4-5,2.3-7.1s0.3-3-1.4-4c-1.9-1.1-3.6-2.6-6-4.3c2.3-0.1,4.5-0.1,6.8,0.1c2.8,0.4,3.8-0.9,4.4-3.3
	C88.1,197.7,88.8,195.8,89.6,193.4z"/>
<path class="st2" d="M117.6,213.8c3.3,0,5.8-0.1,8.2,0c1.1,0.2,2.1-0.4,2.4-1.5c0-0.1,0-0.2,0-0.3c0.7-2.4,1.5-4.7,2.4-7.7
	c0.9,2.7,1.8,4.9,2.4,7.2c0.4,1.7,1.2,2.5,3,2.3c2.3-0.2,4.6,0,7.8,0c-2.5,1.9-4.5,3.5-6.6,4.8c-1.4,0.9-1.4,1.7-1,3
	c1,2.3,1.6,4.8,2,7.3c-2.3-1.7-4.3-3.1-6.2-4.5c-0.8-0.8-2-0.8-2.8,0c0,0,0,0,0,0c-2,1.6-4.1,3-6.8,5c1-3,1.7-5.2,2.5-7.4
	c0.6-1.5,0.6-2.5-1-3.4C122,217.3,120.2,215.7,117.6,213.8z"/>
<path class="st2" d="M72.7,172.7c-2.7,2-4.7,3.5-6.8,5c-0.9,0.4-1.2,1.5-0.8,2.3c0,0,0,0.1,0.1,0.1c0.9,2.4,1.6,4.9,2.6,7.9
	c-2.5-1.8-4.7-3.3-6.7-4.9c-0.7-0.8-1.9-0.8-2.7-0.1c0,0-0.1,0.1-0.1,0.1c-2,1.6-4.1,3-6.6,4.8c0.9-3,1.5-5.4,2.5-7.6
	c0.6-1.5,0.2-2.2-1-3c-2-1.3-3.9-2.8-6.5-4.7c3.2,0,5.7-0.1,8.2,0c1.1,0.2,2.1-0.4,2.4-1.5c0-0.1,0-0.2,0-0.3
	c0.7-2.4,1.5-4.7,2.4-7.4c0.8,1.6,1.5,3.4,1.9,5.1c1.3,3.9,1.3,3.9,5.3,3.9L72.7,172.7L72.7,172.7z"/>
<path class="st2" d="M202,163.3c1,3,1.9,5.5,2.6,7.9c0.1,1,1,1.7,2,1.6c0,0,0.1,0,0.1,0c2.6-0.1,5.1,0,8.4,0c-1.6,1.3-3.3,2.5-5,3.6
	c-2.4,1.4-3.4,3-1.9,5.7c0.9,1.6,1.2,3.6,1.9,6c-2.5-1.8-4.5-3.1-6.4-4.7c-1.2-0.9-2-1-3.2-0.1c-1.9,1.6-4,2.9-6.5,4.8
	c0.6-2.2,1.3-4.4,2.1-6.5c1-2.2,0.6-3.6-1.5-4.8c-1.8-1-3.4-2.4-5.7-4.1c3,0,5.2-0.2,7.5,0.1s3-0.6,3.4-2.5
	C200.3,168.1,201.1,166,202,163.3z"/>
<path class="st2" d="M40.5,147.1c1-3,1.6-5.4,2.5-7.7c0.6-0.9,0.3-2.2-0.7-2.7c-0.1,0-0.1-0.1-0.2-0.1c-2.1-1.3-4-2.9-6.6-4.8
	c3.2,0,5.7-0.1,8.2,0c1,0.2,2-0.4,2.3-1.4c0-0.1,0-0.1,0-0.2c0.7-2.5,1.6-4.9,2.6-7.8c0.9,2.6,1.7,4.8,2.2,7
	c0.5,1.9,1.3,2.8,3.4,2.6c2.5-0.1,4.9-0.2,7.4-0.1c-2.3,1.7-4.1,3.2-6,4.3s-2,2.2-1.3,4.1c0.8,2.1,1.4,4.2,2.3,7
	c-2.6-1.9-4.7-3.3-6.6-4.9c-0.7-0.8-2-0.9-2.8-0.2c-0.1,0.1-0.1,0.1-0.2,0.2C45.1,143.8,43,145.2,40.5,147.1z"/>
<path class="st2" d="M204.9,147c0.9-2.9,1.5-5.2,2.4-7.5c0.5-1.4,0.4-2.2-0.9-3.1c-2.1-1.3-4-2.9-6.5-4.7c2.6,0,4.6-0.2,6.5,0
	c2.5,0.3,4-0.4,4.4-3.2c0.5-2.1,1.2-4.2,2.1-6.3c0.9,2.8,1.9,5.2,2.5,7.7c0.1,1.1,1.1,1.9,2.2,1.8c0.1,0,0.2,0,0.3,0
	c2.5-0.1,4.9,0,8.1,0c-2.5,1.9-4.4,3.4-6.5,4.7c-1.3,0.9-1.5,1.7-0.9,3.1c0.9,2.3,1.5,4.7,2.4,7.5c-2.6-1.9-4.8-3.4-6.9-5
	c-0.6-0.6-1.6-0.7-2.2-0.1c0,0-0.1,0.1-0.1,0.1C209.8,143.6,207.6,145.1,204.9,147z"/>
<path class="st2" d="M51.5,106c1-3.1,1.8-5.6,2.6-8.1c0.4-0.8,0.1-1.8-0.7-2.3c0,0,0,0,0,0c-2.1-1.4-4.2-3-6.9-4.9
	c3.1,0,5.5-0.1,7.9,0c1.5,0.1,2.2-0.3,2.6-1.8c0.6-2.4,1.5-4.7,2.5-7.7c0.7,2.1,1.3,3.8,1.8,5.4c1.3,4.1,1.3,4.1,5.5,4.1h5.8
	c-2.5,1.9-4.5,3.4-6.6,4.8c-1,0.5-1.5,1.6-1,2.6c0,0.1,0.1,0.1,0.1,0.2c0.9,2.3,1.5,4.7,2.5,7.7c-2.5-1.8-4.5-3.1-6.3-4.6
	c-1.2-1-2.1-1.1-3.4-0.1C56,102.8,53.9,104.2,51.5,106z"/>
<path class="st2" d="M202,81.1c1,3,1.9,5.4,2.6,7.9c0.1,1,1,1.8,2.1,1.7c0.1,0,0.1,0,0.2,0c2.5-0.1,5,0,8.2,0
	c-2.5,1.8-4.4,3.4-6.5,4.7c-1,0.4-1.5,1.6-1,2.6c0,0.1,0.1,0.2,0.1,0.2c0.9,2.3,1.5,4.7,2.5,7.7c-2.4-1.8-4.5-3.1-6.3-4.6
	c-1.4-1.2-2.3-1-3.6,0c-1.8,1.6-3.9,3-6.1,4.1c0.9-2.7,1.5-5,2.3-7.2c0.5-1.3,0.4-2.1-0.9-2.8c-2.1-1.3-4-2.9-6.6-4.7
	c3,0,5.4-0.1,7.7,0c1.8,0.2,2.5-0.5,2.9-2.2C200.2,86.2,201,84,202,81.1z"/>
<text transform="matrix(1 0 0 1 37.9661 378.0151)" class="st3 st4 st5">NL</text>
</svg>
